<?xml version="1.0" encoding="UTF-8" standalone="no"?>
<!DOCTYPE svg PUBLIC "-//W3C//DTD SVG 1.1//EN" "http://www.w3.org/Graphics/SVG/1.1/DTD/svg11.dtd">
<svg width="100%" height="100%" viewBox="0 0 1794 514" version="1.1" xmlns="http://www.w3.org/2000/svg" xmlns:xlink="http://www.w3.org/1999/xlink" xml:space="preserve" xmlns:serif="http://www.serif.com/" style="fill-rule:evenodd;clip-rule:evenodd;stroke-linejoin:round;stroke-miterlimit:2;">
    <g transform="matrix(1,0,0,1,-384.131,-802.146)">
        <g id="obj" transform="matrix(4.16667,0,0,4.16667,0,0)">
            <g transform="matrix(1,0,0,1,207.048,209.393)">
                <path d="M0,20.252C0,28.687 -8.439,28.687 -8.439,28.687L-16.877,28.687L-16.877,-8.439L-8.439,-8.439C0,-8.435 0,0 0,0L0,20.252ZM-8.438,-16.874L-25.314,-16.874L-25.314,37.126L-8.439,37.126C-8.439,37.126 8.437,37.126 8.437,20.252L8.437,0C8.437,0 8.437,-16.874 -8.438,-16.874" style="fill:rgb(35,31,32);fill-rule:nonzero;"/>
            </g>
            <g transform="matrix(1,0,0,1,0,-448.417)">
                <rect x="304.922" y="640.936" width="32.067" height="8.435" style="fill:rgb(35,31,32);"/>
            </g>
            <g transform="matrix(1,0,0,1,0,-448.414)">
                <rect x="456.704" y="640.933" width="25.211" height="8.438" style="fill:rgb(35,31,32);"/>
            </g>
            <g transform="matrix(1,0,0,1,0,-357.291)">
                <rect x="456.704" y="595.371" width="25.211" height="8.439" style="fill:rgb(35,31,32);"/>
            </g>
            <g transform="matrix(1,0,0,1,0,-407.915)">
                <rect x="456.704" y="620.683" width="25.211" height="8.439" style="fill:rgb(35,31,32);"/>
            </g>
            <g transform="matrix(0,-1,-1,0,401.116,254.956)">
                <rect x="8.437" y="-8.436" width="8.435" height="25.312" style="fill:rgb(35,31,32);"/>
            </g>
            <g transform="matrix(0,-1,-1,0,359.768,242.303)">
                <rect x="7.598" y="-7.598" width="8.435" height="23.628" style="fill:rgb(35,31,32);"/>
            </g>
            <g transform="matrix(-1,0,0,1,459.653,-402.852)">
                <rect x="225.608" y="595.371" width="8.437" height="54" style="fill:rgb(35,31,32);"/>
            </g>
            <g transform="matrix(-1,0,0,1,584.534,-402.852)">
                <rect x="288.048" y="595.371" width="8.438" height="54" style="fill:rgb(35,31,32);"/>
            </g>
            <g transform="matrix(-1,0,0,1,776.915,-402.852)">
                <rect x="384.24" y="595.371" width="8.435" height="54" style="fill:rgb(35,31,32);"/>
            </g>
            <g transform="matrix(-1,0,0,1,641.913,-397.078)">
                <rect x="316.737" y="595.371" width="8.439" height="48.226" style="fill:rgb(35,31,32);"/>
            </g>
            <g transform="matrix(1,0,0,1,0,-448.417)">
                <rect x="490.45" y="640.936" width="32.066" height="8.435" style="fill:rgb(35,31,32);"/>
            </g>
            <g transform="matrix(-1,0,0,1,1012.97,-398.633)">
                <rect x="502.264" y="595.371" width="8.439" height="49.781" style="fill:rgb(35,31,32);"/>
            </g>
            <g transform="matrix(-1,0,0,1,921.842,-402.852)">
                <rect x="456.702" y="595.371" width="8.438" height="54" style="fill:rgb(35,31,32);"/>
            </g>
            <g transform="matrix(0.213706,-0.976898,-0.976898,-0.213706,373.015,235.179)">
                <path d="M-18.416,31.12L36.861,31.12L38.664,22.88L-16.613,22.877L-18.416,31.12Z" style="fill:rgb(35,31,32);fill-rule:nonzero;"/>
            </g>
            <g transform="matrix(0.213706,0.976898,0.976898,-0.213706,389.783,203.855)">
                <path d="M-18.412,-31.12L36.865,-31.12L38.668,-22.876L-16.613,-22.877L-18.412,-31.12Z" style="fill:rgb(35,31,32);fill-rule:nonzero;"/>
            </g>
            <g transform="matrix(0.707084,-0.70713,-0.70713,-0.707084,101.215,245.092)">
                <path d="M9.02,21.778L52.574,21.778L74.351,-0L-12.757,0.002L9.02,21.778Z" style="fill:rgb(35,31,32);fill-rule:nonzero;"/>
            </g>
            <g transform="matrix(0,1,1,0,97.9684,244.49)">
                <path d="M21.171,-5.775L32.721,-5.775L5.775,21.171L-5.775,21.171L21.171,-5.775Z" style="fill:rgb(35,31,32);fill-rule:nonzero;"/>
            </g>
            <g transform="matrix(1,0,0,1,92.1914,225.241)">
                <path d="M0,63.52L42.348,21.173L42.348,-0.001L69.294,-26.948L69.294,21.173L0,90.468L0,63.52Z" style="fill:rgb(35,31,32);fill-rule:nonzero;"/>
            </g>
            <g transform="matrix(1,0,0,1,269.383,227.954)">
                <path d="M0,-16.876C0,-16.876 0,-27.001 -8.438,-27.001C-16.875,-27.001 -16.875,-16.876 -16.875,-16.876L-16.875,-0C-16.875,-0 -16.875,10.125 -8.438,10.125C0,10.125 0,-0 0,-0L-8.437,-0L-8.437,-6.751L8.438,-6.751L8.438,18.563L0,18.563L0,13.5C0,13.5 -1.687,18.563 -8.438,18.563C-15.188,18.563 -25.313,15.188 -25.313,-0L-25.313,-16.876C-25.313,-16.876 -25.313,-35.439 -8.438,-35.439C8.438,-35.439 8.438,-16.876 8.438,-16.876L0,-16.876Z" style="fill:rgb(35,31,32);fill-rule:nonzero;"/>
            </g>
            <g transform="matrix(1,0,0,1,438.138,246.517)">
                <path d="M0,-54.002L0,-15.189C0,-15.189 0.002,-8.439 -6.75,-8.439C-13.501,-8.439 -13.499,-15.189 -13.499,-15.189L-13.499,-20.252L-21.938,-20.252L-21.938,-15.189C-21.938,-15.189 -21.938,0 -6.75,0C8.438,0 8.438,-15.189 8.438,-15.189L8.438,-54.002L0,-54.002Z" style="fill:rgb(35,31,32);fill-rule:nonzero;"/>
            </g>
        </g>
    </g>
</svg>
