<?xml version="1.0" encoding="UTF-8"?><svg id="_レイヤー_2" xmlns="http://www.w3.org/2000/svg" viewBox="0 0 560.9 138.7"><defs><style>.cls-1{fill:#ca2a1f;}.cls-2{fill:#0e2e55;}</style></defs><g id="_レイヤー_1-2"><g><g><path class="cls-2" d="M398.09,37.08v21.12c0,.69-.56,1.25-1.25,1.25h-31.36c-.69,0-1.25-.56-1.25-1.25v-21.12c0-.69-.56-1.25-1.25-1.25h-9.21c-.69,0-1.25,.56-1.25,1.25v53.48c0,.69,.56,1.25,1.25,1.25h9.21c.69,0,1.25-.56,1.25-1.25v-20.07c0-.69,.56-1.25,1.25-1.25h31.36c.69,0,1.25,.56,1.25,1.25v20.07c0,.69,.56,1.25,1.25,1.25h9.21c.69,0,1.25-.56,1.25-1.25V37.08c0-.69-.56-1.25-1.25-1.25h-9.21c-.69,0-1.25,.56-1.25,1.25Z"/><path class="cls-2" d="M247.4,34.13c-41.71,.72-41.71,56.97,0,57.68,41.71-.72,41.71-56.97,0-57.68Zm20.03,28.84c-.43,23.64-39.63,23.64-40.06,0,.43-23.64,39.63-23.64,40.06,0Z"/><path class="cls-2" d="M174.29,58.37l-26.84-25.35c-1.07-1.01-2.84-.25-2.84,1.22l-.03,55.88c0,.93,.75,1.69,1.68,1.69h8.35c.93,0,1.69-.75,1.69-1.68l.02-29.31c0-1.48,1.77-2.24,2.84-1.22l15.13,14.29c.65,.61,1.67,.61,2.31,0l15.11-14.27c1.07-1.02,2.84-.25,2.84,1.23l-.02,29.28c0,.93,.75,1.69,1.68,1.69h8.36c.93,0,1.69-.75,1.69-1.68l.04-55.9c0-1.48-1.77-2.24-2.84-1.23l-26.85,25.36c-.65,.61-1.66,.61-2.31,0Z"/><path class="cls-2" d="M550.02,91.81h9.63c.92,0,1.52-.97,1.11-1.8l-28.01-56.09c-.46-.92-1.77-.92-2.22,0l-28.01,56.09c-.41,.83,.19,1.8,1.11,1.8h9.63c2.21,.02,3.9-9.83,6.11-9.81,0,0,24.53,0,24.53,0,.48,0,.93,.28,1.13,.72,.57,.61,3.64,9.59,4.98,9.09Zm-11.8-19.66h-13.16c-.91,0-1.51-.94-1.13-1.76l6.58-14.27c.44-.96,1.81-.96,2.26,0l6.58,14.27c.38,.82-.22,1.76-1.13,1.76Z"/><path class="cls-2" d="M332.44,75.43c-11.19,11.47-34.97,3.68-34.46-12.47-.45-16.46,23.66-23.86,34.81-12.23,.32,.34,.85,.36,1.18,.04,.06-.48,8.61-7.11,6.96-7.84-17.89-18.2-55.42-5.92-54.65,20.03-.76,25.94,36.76,38.23,54.65,20.02,1.48-.95-6.08-6.52-6.99-7.85-.69-.66-1.5,.29-1.5,.29Z"/><rect class="cls-2" x="428.26" y="35.84" width="11.7" height="55.96" rx="1.29" ry="1.29"/><path class="cls-2" d="M475.41,91.8h9.95c.48,0,.87-.39,.87-.87v-20.5c-.04-.67,21.8-32.67,22.01-33.23,.39-.58-.03-1.36-.73-1.36-.33,.13-12.99-.42-12.67,.44,0,0-13.71,23.76-13.71,23.76-.34,.58-1.18,.58-1.51,0l-13.71-23.75c.3-.93-12.34-.23-12.67-.44-.7,0-1.11,.78-.73,1.36l21.86,32.75c.1,.14,.15,.31,.15,.49v20.5c0,.48,.39,.87,.87,.87Z"/><path class="cls-1" d="M445.71,11.37c-.07,15.17-23.13,15.16-23.19,0,.07-15.16,23.13-15.16,23.19,0Z"/></g><path class="cls-2" d="M115.07,34.39l-21.31-23.92c-2.57-2.88-6.26-4.54-10.12-4.54H34.9c-3.86,0-7.55,1.65-10.12,4.54L3.46,34.39c-4.93,5.54-4.55,13.84,.86,18.91l39.32,36.8c.57,.53,1.45,.53,2.02,0l5.72-5.36c.6-.56,.6-1.5,0-2.06L11.64,45.48c-1.14-1.07-1.22-2.81-.18-3.98l21.31-23.92c.54-.61,1.32-.95,2.13-.95h48.75c.81,0,1.59,.35,2.13,.95l21.31,23.92c1.04,1.16,.96,2.91-.18,3.98L29.21,118.2c-3.62,3.39-4.94,8.68-3.04,13.26s6.05,7.24,10.83,7.24h44.26c4.62,0,8.95-2.55,10.91-6.74,2.18-4.67,1.11-10.06-2.6-13.54l-14.69-13.75c-.55-.52-1.41-.52-1.97,0l-5.6,5.25c-.67,.63-.67,1.7,0,2.33l14.95,13.99c.12,.12,.5,.47,.25,1.11-.25,.64-.77,.64-.94,.64H37c-.17,0-.7,0-.95-.65s.13-1.01,.25-1.12L114.22,53.3c5.41-5.07,5.79-13.37,.86-18.91Z"/><g><path class="cls-2" d="M143.99,109.07h7.02c6.03,0,10.02,4.08,10.02,9.9s-3.99,9.9-10.02,9.9h-7.02v-19.8Zm3.75,2.88v14.04h3.09c4.05,0,6.21-2.55,6.21-7.02s-2.16-7.02-6.21-7.02h-3.09Z"/><path class="cls-2" d="M163.64,122.42c0-3.69,3.12-6.84,6.72-6.84s6.39,2.97,6.39,7.35h-9.63c.06,2.01,1.47,3.6,3.87,3.6,1.68,0,2.7-.72,3.24-1.95l2.43,1.32c-.99,1.95-2.94,3.27-5.79,3.27-4.17,0-7.23-3.06-7.23-6.75Zm3.51-1.41h6.18c-.15-1.71-1.29-3.09-3.06-3.09s-2.91,1.44-3.12,3.09Z"/><path class="cls-2" d="M177.73,115.88h3.51l3.66,9.24,3.66-9.24h3.15l-5.4,12.99h-3.18l-5.4-12.99Z"/><path class="cls-2" d="M192.68,122.42c0-3.69,3.12-6.84,6.72-6.84s6.39,2.97,6.39,7.35h-9.63c.06,2.01,1.47,3.6,3.87,3.6,1.68,0,2.7-.72,3.24-1.95l2.43,1.32c-.99,1.95-2.94,3.27-5.79,3.27-4.17,0-7.23-3.06-7.23-6.75Zm3.51-1.41h6.18c-.15-1.71-1.29-3.09-3.06-3.09s-2.91,1.44-3.12,3.09Z"/><path class="cls-2" d="M209.1,109.07h1.14c1.23,0,1.74-.03,2.28-.21v20.01h-3.42v-19.8Z"/><path class="cls-2" d="M215.75,122.36c0-3.63,3.27-6.78,7.05-6.78s7.05,3.15,7.05,6.78-3.3,6.81-7.05,6.81-7.05-3.15-7.05-6.81Zm10.59,0c0-2.31-1.56-3.93-3.54-3.93s-3.54,1.62-3.54,3.93,1.56,3.96,3.54,3.96,3.54-1.65,3.54-3.96Z"/><path class="cls-2" d="M233.12,115.88h1.14c1.23,0,1.74-.06,2.28-.24v2.82c.72-1.65,2.34-2.88,4.35-2.88,3.27,0,6.21,3.09,6.21,6.78s-2.94,6.81-6.21,6.81c-2.01,0-3.63-1.23-4.35-2.88v8.88h-3.42v-19.29Zm10.47,6.48c0-2.31-1.62-3.93-3.6-3.93-1.83,0-3.54,1.62-3.54,3.93s1.71,3.96,3.54,3.96c1.98,0,3.6-1.65,3.6-3.96Z"/><path class="cls-2" d="M250.41,115.88h1.14c1.26,0,1.74-.06,2.28-.24v2.64c.78-1.68,2.43-2.7,4.62-2.7,2.07,0,3.54,.99,4.11,2.82,.78-1.77,2.49-2.82,4.86-2.82,2.76,0,4.41,1.68,4.41,4.74v8.55h-3.42v-7.89c0-1.8-.72-2.46-2.16-2.46-2.07,0-3.42,1.38-3.42,3.81v6.54h-3.42v-7.89c0-1.8-.72-2.46-2.16-2.46-2.07,0-3.42,1.38-3.42,3.81v6.54h-3.42v-12.99Z"/><path class="cls-2" d="M275.06,122.42c0-3.69,3.12-6.84,6.72-6.84s6.39,2.97,6.39,7.35h-9.63c.06,2.01,1.47,3.6,3.87,3.6,1.68,0,2.7-.72,3.24-1.95l2.43,1.32c-.99,1.95-2.94,3.27-5.79,3.27-4.17,0-7.23-3.06-7.23-6.75Zm3.51-1.41h6.18c-.15-1.71-1.29-3.09-3.06-3.09s-2.91,1.44-3.12,3.09Z"/><path class="cls-2" d="M291.48,115.88h1.14c1.26,0,1.74-.06,2.28-.24v2.64c.84-1.74,2.61-2.7,4.74-2.7,2.76,0,4.47,1.59,4.47,4.74v8.55h-3.42v-7.89c0-1.8-.75-2.46-2.25-2.46-2.13,0-3.54,1.38-3.54,3.81v6.54h-3.42v-12.99Z"/><path class="cls-2" d="M308.81,123.89v-5.37h-2.37v-2.28h.27c2.13,0,3-1.35,3-3.3v-1.17h.24c1.11,0,1.68-.03,2.28-.24v4.35h4.89v2.64h-4.89v5.88c0,1.47,.72,2.13,1.65,2.13,.87,0,1.59-.6,2.04-1.47l2.34,1.5c-.75,1.68-2.46,2.61-4.47,2.61-3.03,0-4.98-2.07-4.98-5.28Z"/><path class="cls-2" d="M334.93,126.95c-1.16,1.2-2.7,1.82-4.42,1.82-2.82,0-4.74-1.62-4.74-3.78,0-1.72,1.24-3,3.32-3.7l-.1-.1c-.9-.9-1.3-1.78-1.3-2.7,0-1.84,1.6-3.32,3.94-3.32s3.94,1.5,3.94,3.52c0,1.64-1.08,2.72-2.72,3.42l1.96,1.9c1.22-2.46,2.3-3.18,4.16-3.18,.3,0,.52,.02,.78,.06l.36,2.12c-.2-.02-.38-.04-.66-.04-1.38,0-2.44,.54-3.38,2.24l2.88,2.76-1.62,1.3-2.4-2.32Zm-1.22-1.18l-3.62-3.52c-1.14,.54-1.8,1.44-1.8,2.44,0,1.26,1.06,2.24,2.72,2.24,1.02,0,1.92-.38,2.7-1.16Zm-2.58-5.3l.7,.68c.96-.56,1.48-1.38,1.48-2.38,0-1.14-.68-1.92-1.72-1.92-.92,0-1.58,.62-1.58,1.6,0,.82,.46,1.38,1.12,2.02Z"/><path class="cls-2" d="M349.62,120.92v-11.85h3.75v12.03c0,3.18,1.59,4.89,4.26,4.89s4.26-1.68,4.26-4.89v-12.03h3.75v11.85c0,5.25-3.03,8.25-8.01,8.25s-8.01-3-8.01-8.25Z"/><path class="cls-2" d="M374.41,118.76l-5.76-9.69h4.14l3.87,6.72,3.72-6.72h3.96l-5.76,9.63,6.06,10.17h-4.14l-4.14-7.23-4.05,7.23h-3.96l6.06-10.11Z"/><path class="cls-2" d="M394.54,109.07h7.02c6.03,0,10.02,4.08,10.02,9.9s-3.99,9.9-10.02,9.9h-7.02v-19.8Zm3.75,2.88v14.04h3.09c4.05,0,6.21-2.55,6.21-7.02s-2.16-7.02-6.21-7.02h-3.09Z"/><path class="cls-2" d="M414.19,122.42c0-3.69,3.12-6.84,6.72-6.84s6.39,2.97,6.39,7.35h-9.63c.06,2.01,1.47,3.6,3.87,3.6,1.68,0,2.7-.72,3.24-1.95l2.43,1.32c-.99,1.95-2.94,3.27-5.79,3.27-4.17,0-7.23-3.06-7.23-6.75Zm3.51-1.41h6.18c-.15-1.71-1.29-3.09-3.06-3.09s-2.91,1.44-3.12,3.09Z"/><path class="cls-2" d="M429.38,127.22l1.74-2.01c.69,.81,1.86,1.5,3.72,1.5,1.62,0,2.61-.54,2.61-1.5,0-.66-.45-1.14-1.86-1.38l-2.13-.36c-2.4-.42-3.54-1.86-3.54-3.57,0-2.55,2.55-4.32,5.73-4.32,2.19,0,4.08,.84,4.92,2.1l-1.83,1.92c-.66-.96-1.86-1.56-3.3-1.56-1.32,0-2.19,.54-2.19,1.5,0,.78,.48,1.23,2.07,1.5l1.8,.3c2.46,.45,3.66,1.77,3.66,3.48,0,2.64-2.67,4.35-6.18,4.35-2.31,0-4.38-.75-5.22-1.95Z"/><path class="cls-2" d="M443.57,111.59c0-1.17,.9-2.07,2.1-2.07s2.1,.9,2.1,2.07-.9,2.07-2.1,2.07-2.1-.9-2.1-2.07Zm.39,4.29h1.14c1.11,0,1.68-.03,2.28-.24v13.23h-3.42v-12.99Z"/><path class="cls-2" d="M451.4,133.04l2.28-1.86c.78,1.08,1.8,1.65,3.54,1.65,2.73,0,3.93-1.32,3.93-3.96v-2.58c-.72,1.65-2.34,2.88-4.38,2.88-3.24,0-6.18-3.09-6.18-6.81s2.94-6.78,6.18-6.78c2.01,0,3.66,1.23,4.38,2.88v-2.58h1.14c1.23,0,1.74-.06,2.28-.24v12.72c0,4.65-2.85,7.11-7.38,7.11-2.49,0-4.65-.75-5.79-2.43Zm9.84-10.68c0-2.31-1.71-3.93-3.54-3.93-2.01,0-3.6,1.62-3.6,3.93s1.59,3.96,3.6,3.96c1.83,0,3.54-1.65,3.54-3.96Z"/><path class="cls-2" d="M468.7,115.88h1.14c1.26,0,1.74-.06,2.28-.24v2.64c.84-1.74,2.61-2.7,4.74-2.7,2.76,0,4.47,1.59,4.47,4.74v8.55h-3.42v-7.89c0-1.8-.75-2.46-2.25-2.46-2.13,0-3.54,1.38-3.54,3.81v6.54h-3.42v-12.99Z"/><path class="cls-2" d="M496.99,112.01h-5.91v-2.94h15.57v2.94h-5.91v16.86h-3.75v-16.86Z"/><path class="cls-2" d="M506.29,122.42c0-3.69,3.12-6.84,6.72-6.84s6.39,2.97,6.39,7.35h-9.63c.06,2.01,1.47,3.6,3.87,3.6,1.68,0,2.7-.72,3.24-1.95l2.43,1.32c-.99,1.95-2.94,3.27-5.79,3.27-4.17,0-7.23-3.06-7.23-6.75Zm3.51-1.41h6.18c-.15-1.71-1.29-3.09-3.06-3.09s-2.91,1.44-3.12,3.09Z"/><path class="cls-2" d="M521.7,125.6c0-3,3.06-3.63,5.7-3.93,1.86-.21,2.61-.33,2.61-1.62s-.72-1.83-2.31-1.83c-1.5,0-2.52,.57-3.03,1.62l-2.31-1.38c.96-1.89,3.15-2.88,5.76-2.88,3.27,0,5.31,1.56,5.31,4.95v8.34h-3.36v-1.95c-.72,1.5-2.13,2.25-4.11,2.25-2.64,0-4.26-1.32-4.26-3.57Zm8.34-1.92v-1.23c-.39,.72-.99,.93-2.22,1.08-1.26,.18-2.79,.36-2.79,1.8,0,.96,.6,1.59,1.95,1.59,1.77,0,3.06-.96,3.06-3.24Z"/><path class="cls-2" d="M537.53,115.88h1.14c1.26,0,1.74-.06,2.28-.24v2.64c.78-1.68,2.43-2.7,4.62-2.7,2.07,0,3.54,.99,4.11,2.82,.78-1.77,2.49-2.82,4.86-2.82,2.76,0,4.41,1.68,4.41,4.74v8.55h-3.42v-7.89c0-1.8-.72-2.46-2.16-2.46-2.07,0-3.42,1.38-3.42,3.81v6.54h-3.42v-7.89c0-1.8-.72-2.46-2.16-2.46-2.07,0-3.42,1.38-3.42,3.81v6.54h-3.42v-12.99Z"/></g></g></g></svg>