<svg xmlns="http://www.w3.org/2000/svg" xmlns:xlink="http://www.w3.org/1999/xlink" width="196px" height="32px" viewBox="0 0 196 32"><title>株式会社両備システムズ</title><desc>両備システムズのシンボルマークと社名ロゴタイプ</desc><defs><linearGradient id="a" x1="0%" y1="0%" y2="100%"><stop offset="0%" stop-color="#5FD2FF"/><stop offset="14.438%" stop-color="#5FD2FF"/><stop offset="79.955%" stop-color="#1255A3"/><stop offset="100%" stop-color="#1255A3"/></linearGradient></defs><g fill="none" fill-rule="evenodd"><path fill="#1255A3" d="M190.31 20.99l-.01 5.093c-1.87-2.174-5.588-5.43-8.03-7.486-2.467 2.645-6.654 5.457-10.31 6.905l-.443.176V21.87l.193-.08c3.927-1.66 9.155-5.05 11.986-11.817H172.4V6.55h16.216l-.076.37c-.237 1.143-.95 4.58-4.157 9.064.78.613 3.394 2.69 5.927 5.006zm-.745-14.44h2.388v4.335h-2.388V6.55zm3.34 0h2.386v4.335h-2.386V6.55zM149.25 25.456c2.7-6.072 5.547-13.963 6.795-19.36h4.112c-2.8 9.86-4.965 15.53-4.965 15.53 3.538-.16 4.713-.274 8.51-.597 0 0-1.016-2.232-2.985-5.306l4.35.01c2.01 2.79 4.388 8.643 4.962 10.16l-4.243.025c-.37-1.016-.45-1.08-.7-1.695-3.853.523-9.648.925-15.838 1.232zm1.61-13.13V15.7h-7.18l-.024.364c-.364 5.677-3.626 9.774-10.357 10.723l.005-3.578c4.24-.79 6.34-2.837 6.592-7.123l.023-.387h-8.344v-3.373h19.285zM133.4 6.537h15.638V9.91H133.4V6.536zm-2.677 14.453l-.01 5.093c-1.87-2.174-5.588-5.43-8.03-7.486-2.466 2.645-6.653 5.457-10.31 6.905l-.443.176V21.87l.193-.08c3.927-1.66 9.155-5.05 11.987-11.817h-11.298V6.55h16.218l-.077.37c-.237 1.143-.95 4.58-4.157 9.064.78.613 3.394 2.69 5.927 5.006zm-31.576-3.165c-2.58-.97-3.873-1.46-7.16-2.097l-.26-.05.006-3.634.363.05c.998.13 4.49.66 7.53 1.96l.194.084v3.94l-.673-.253zm8.172-7.765l.048-.26h4.005l-.08.385c-1.045 5.028-3.05 8.686-6.124 11.182-3.104 2.518-7.387 3.925-13.092 4.302l-.344.02.008-3.905.31-.01c8.843-.302 13.837-4.135 15.267-11.715zm-8.128 1.984c-2.587-.974-3.885-1.462-7.18-2.104l-.185-.037.005-3.446.256.035c.995.13 4.476.66 7.505 1.955l.138.06v3.74l-.538-.203zM66.187 9.18h-8.552v1.475h8.552v13.793c0 1.086-.736 2.186-2.14 2.186H59.86l-.004-3.266h2.64c.27 0 .39-.02.39-.454v-9.24h-5.25v6.07h1.192v-5.19h2.91v8.167H50.45v-8.167h2.887v5.192h1.237v-6.072h-5.25v12.96H46V10.656h8.574V9.18H46V6.095h20.187V9.18zm11.19 17.41V13.556h11.37v10.958c0 1.337-.666 2.076-2.06 2.076h-1.484l.004-2.844c.103 0 .56 0 .628-.04.07-.04.048-.3.048-.58v-.704h-1.49v4.037h-2.8V22.42H80.15v4.168h-2.774zm7.016-7.455v.982h1.49v-.982h-1.49zm0-3.12v1.062h1.49v-1.062h-1.49zm-4.243 0v1.062h1.443v-1.062H80.15zm0 3.12v.982h1.443v-.982H80.15zm-5.947-9.752V6.706h2.5V5.42h3.213v1.286h2.612V5.42h3.193v1.286h3.143v2.677H85.72v.945h3.623v2.633h-12.59v6.178c0 3.86-1.28 6.287-3.594 7.637l.002-4.718c.702-.566.675-2.273.675-3.098l.003-8.632h2.863v-.945h-2.5zm-.162-3.97c-.223 1.884-.578 3.902-1.384 6.34V26.59h-3.023v-9.85c-.326.363-.705.744-1.014 1.06-.156.156-.293.294-.394.402l-.534.56v-4.875l.07-.086c2.268-2.78 2.832-6.683 3.018-7.967l.063-.418h3.198zm5.876 3.97v.945h2.612v-.945h-2.612z"/><path fill="url(#a)" d="M0 29.48V18.113C2.247 19.722 8.304 24.628 10.28 32H2.52C1.13 32 0 30.87 0 29.48zM2.52 0h26.96c.79 0 1.493.363 1.955.93C14.327 11.2 11.133 25.458 10.497 30.86 10.327 27.113 8.943 16.505 0 9.24V2.52C0 1.128 1.13 0 2.52 0zm8.217 32C16.154 18.883 29.01 14.828 32 14.047V29.48c0 1.39-1.128 2.52-2.52 2.52H10.737z"/><path fill="#FFF" d="M31.435.93C14.328 11.2 11.133 25.457 10.495 30.86 10.33 27.113 8.944 16.505.002 9.24v8.872C2.248 19.722 8.305 24.63 10.28 32h.456C16.156 18.882 29.01 14.827 32 14.046V2.52c0-.603-.21-1.156-.565-1.59"/></g></svg>