<svg xmlns="http://www.w3.org/2000/svg" width="321.457" height="68.689" viewBox="0 0 321.457 68.689">
  <g id="グループ化_8" data-name="グループ化 8" transform="translate(-100.181 -440.603)">
    <g id="グループ化_5" data-name="グループ化 5">
      <path id="パス_47" data-name="パス 47" d="M231.566,481.573h-6.548a1.027,1.027,0,0,0-1.029,1.028v5.134c0,7.515-.878,10.256-10.773,11.433h-.273a1.54,1.54,0,0,0-1.54,1.541v5.908a1.538,1.538,0,0,0,1.54,1.538h3.6a1.27,1.27,0,0,0,.241-.023c6.73-.144,15.816-4.635,15.816-17.933v-7.6A1.027,1.027,0,0,0,231.566,481.573Zm20.429-15.624H213.66a1.029,1.029,0,0,0-1.03,1.029v7.363a1.028,1.028,0,0,0,1.03,1.028H243.5a1.028,1.028,0,0,1,1.027,1.029v2.345h0l0,.635c0,5.649-6.149,7.612-7.876,7.612h-1.341a1.026,1.026,0,0,0-1.027,1.026v6.739a1.027,1.027,0,0,0,1.027,1.027h4.241c6.121,0,13.472-7.212,13.472-14.758V466.978A1.029,1.029,0,0,0,251.995,465.949Z" fill="#2d4198"/>
      <path id="パス_48" data-name="パス 48" d="M298.866,466.16a1.542,1.542,0,0,0-1.538-1.544h-4.753a1.545,1.545,0,0,0-1.545,1.544v.387c0,10.531-11.17,18.234-30.824,18.234h-1.541a1.54,1.54,0,0,0-1.541,1.54v5.653a1.542,1.542,0,0,0,1.541,1.542c.081,0,.258,0,.517-.019v.019a94.274,94.274,0,0,0,18.718-1.689l.009,0c.066-.014.13-.023.191-.036v.018a.989.989,0,0,1,.99.988v14.852a1.543,1.543,0,0,0,1.541,1.539h5.521a1.542,1.542,0,0,0,1.541-1.539v-17.9c0-.727.568-1.227,1.671-2.04,6.422-3.854,9.5-10.848,9.5-21.163h-.134Z" fill="#2d4198"/>
      <path id="パス_49" data-name="パス 49" d="M344.828,493.023h-1.2a19.909,19.909,0,0,1-8.456-1.658v-.021a1.7,1.7,0,0,1-1.1-1.59c0-.726,1.1-1.9,1.1-1.9h0c2.662-3.211,4.386-6.6,4.539-9.724v-5.993a1.027,1.027,0,0,0-1.028-1.03h-9.967l-.006-.007v0c-.032,0-.064.01-.1.01a1.083,1.083,0,0,1-1.082-1.082v-5.768a1.029,1.029,0,0,0-1.029-1.028h-6.167a1.029,1.029,0,0,0-1.026,1.028v5.768a1.082,1.082,0,0,1-1.083,1.082h-14.5a1.03,1.03,0,0,0-1.03,1.03v5.993a1.03,1.03,0,0,0,1.03,1.026h26.678a1.467,1.467,0,0,1,1.469,1.468c0,.017-.006.032-.006.052h.049c-.02.072-.049.138-.072.208a1.578,1.578,0,0,1-.135.4c-2.576,6.957-11.49,10.889-25.759,10.889H303.73a1.03,1.03,0,0,0-1.03,1.024v7.365a1.032,1.032,0,0,0,1.03,1.03h4.11a31.717,31.717,0,0,0,10.174-1.665v.008a.959.959,0,0,1,.268-.038,1.028,1.028,0,0,1,1.029,1.025v7.335a1.043,1.043,0,0,0,1.042,1.04h6.093a1.044,1.044,0,0,0,1.043-1.04v-9.2a1.122,1.122,0,0,1,1.123-1.124,1.164,1.164,0,0,1,.414.08v0a36.06,36.06,0,0,0,14.038,3.554.933.933,0,0,0,.223.027h1.541a1.026,1.026,0,0,0,1.025-1.03V494.05A1.026,1.026,0,0,0,344.828,493.023Z" fill="#2d4198"/>
      <path id="パス_50" data-name="パス 50" d="M355.556,489.969A1.032,1.032,0,0,1,354.525,491h-4.248a1.033,1.033,0,0,1-1.029-1.035V477.474a1.031,1.031,0,0,1,1.029-1.038h4.248a1.031,1.031,0,0,1,1.031,1.038Z" fill="#2d4198"/>
      <path id="パス_51" data-name="パス 51" d="M365.767,489.969A1.037,1.037,0,0,1,364.734,491h-4.252a1.034,1.034,0,0,1-1.029-1.035V477.474a1.033,1.033,0,0,1,1.029-1.038h4.252a1.035,1.035,0,0,1,1.033,1.038Z" fill="#2d4198"/>
      <path id="パス_52" data-name="パス 52" d="M378.96,484.781v-7.194a1.146,1.146,0,0,0-1.14-1.151H373.1a1.148,1.148,0,0,0-1.143,1.151V489.4c0,8.028-7,10.842-15.139,10.842h-.8a1.033,1.033,0,0,0-1.039,1.029v6.14a1.034,1.034,0,0,0,1.039,1.03h1.372c9.635.228,21.332-3.9,21.569-15.374S378.96,484.781,378.96,484.781Z" fill="#2d4198"/>
      <path id="パス_53" data-name="パス 53" d="M420.568,482.4l-27.028-2.524v-.009a1.885,1.885,0,0,1-1.7-1.867V464.565a1.059,1.059,0,0,0-1.057-1.06H383.2a1.062,1.062,0,0,0-1.057,1.06v43.391a1.064,1.064,0,0,0,1.057,1.061h7.588a1.061,1.061,0,0,0,1.057-1.061V490.823a1.89,1.89,0,0,1,1.888-1.888h0l26.835,2.372a1.07,1.07,0,0,0,1.07-1.069v-6.772A1.071,1.071,0,0,0,420.568,482.4Z" fill="#2d4198"/>
    </g>
    <g id="グループ化_7" data-name="グループ化 7">
      <path id="パス_54" data-name="パス 54" d="M170.29,481.491v19.367a5.311,5.311,0,0,0,5.279,5.279h19.367a5.311,5.311,0,0,0,5.279-5.279h0V481.491a5.313,5.313,0,0,0-5.279-5.28H175.569a5.312,5.312,0,0,0-5.279,5.28Z" fill="#fff"/>
      <path id="パス_55" data-name="パス 55" d="M136.123,481.324v19.367a5.311,5.311,0,0,0,5.279,5.279h19.367a5.311,5.311,0,0,0,5.279-5.279h0V481.324a5.313,5.313,0,0,0-5.279-5.28H141.4a5.312,5.312,0,0,0-5.279,5.28Z" fill="#fff"/>
      <path id="パス_56" data-name="パス 56" d="M102.123,481.324v19.367a5.311,5.311,0,0,0,5.279,5.279h19.367a5.311,5.311,0,0,0,5.279-5.279h0V481.324a5.313,5.313,0,0,0-5.279-5.28H107.4a5.312,5.312,0,0,0-5.279,5.28Z" fill="#fff"/>
      <path id="パス_57" data-name="パス 57" d="M102.456,447.815v18.72a5.134,5.134,0,0,0,5.1,5.1h18.719a5.134,5.134,0,0,0,5.1-5.1h0v-18.72a5.135,5.135,0,0,0-5.1-5.1H107.56a5.135,5.135,0,0,0-5.1,5.1Z" fill="#fff3c2"/>
      <path id="パス_58" data-name="パス 58" d="M141.619,507.906a7.394,7.394,0,0,1-7.376-7.377h0V481.808a7.4,7.4,0,0,1,7.376-7.378H160.34a7.4,7.4,0,0,1,7.379,7.378h0v18.721a7.4,7.4,0,0,1-7.379,7.377H141.619Zm-5.1-26.1v18.721a5.132,5.132,0,0,0,5.1,5.1H160.34a5.134,5.134,0,0,0,5.105-5.1h0V481.808a5.137,5.137,0,0,0-5.105-5.1H141.619a5.136,5.136,0,0,0-5.1,5.1Z" fill="#2d4198"/>
      <path id="パス_59" data-name="パス 59" d="M175.889,507.906a7.392,7.392,0,0,1-7.376-7.377h0V481.808a7.393,7.393,0,0,1,7.376-7.378h18.72a7.4,7.4,0,0,1,7.377,7.378h0v18.721a7.393,7.393,0,0,1-7.377,7.377h-18.72Zm-5.1-26.1v18.721a5.132,5.132,0,0,0,5.1,5.1h18.72a5.13,5.13,0,0,0,5.1-5.1h0V481.808a5.134,5.134,0,0,0-5.1-5.1h-18.72a5.134,5.134,0,0,0-5.1,5.1Z" fill="#2d4198"/>
      <path id="パス_60" data-name="パス 60" d="M107.56,507.906a7.394,7.394,0,0,1-7.378-7.377h0V481.808a7.4,7.4,0,0,1,7.378-7.378h18.72a7.4,7.4,0,0,1,7.377,7.378h0v18.721a7.393,7.393,0,0,1-7.377,7.377H107.56Zm-5.1-26.1v18.721a5.132,5.132,0,0,0,5.1,5.1h18.72a5.133,5.133,0,0,0,5.1-5.1h0V481.808a5.136,5.136,0,0,0-5.1-5.1H107.56a5.136,5.136,0,0,0-5.1,5.1Z" fill="#2d4198"/>
      <path id="パス_61" data-name="パス 61" d="M107.56,474.08a7.4,7.4,0,0,1-7.379-7.377h0V447.981a7.4,7.4,0,0,1,7.379-7.378h18.719a7.4,7.4,0,0,1,7.379,7.378h0V466.7a7.4,7.4,0,0,1-7.379,7.377H107.56Zm-5.1-26.1V466.7a5.135,5.135,0,0,0,5.1,5.1h18.719a5.134,5.134,0,0,0,5.1-5.1h0V447.981a5.135,5.135,0,0,0-5.1-5.1H107.56a5.135,5.135,0,0,0-5.1,5.1Z" fill="#2d4198"/>
      <g id="グループ化_6" data-name="グループ化 6">
        <path id="パス_62" data-name="パス 62" d="M137.978,467.324v6.141h-.646v-6.141Z" fill="#2d4198"/>
        <path id="パス_63" data-name="パス 63" d="M139.159,470.248c0-.456-.007-.828-.029-1.193h.578l.038.729h.014a1.309,1.309,0,0,1,1.188-.83c.5,0,1.269.365,1.269,1.878v2.633h-.654v-2.541c0-.712-.214-1.3-.83-1.3a.983.983,0,0,0-.876.82,1.43,1.43,0,0,0-.045.374v2.651h-.653Z" fill="#2d4198"/>
        <path id="パス_64" data-name="パス 64" d="M143.347,473.465v-3.8h-.505v-.61h.505v-.209a2.4,2.4,0,0,1,.415-1.541,1.13,1.13,0,0,1,.876-.408,1.277,1.277,0,0,1,.557.126l-.089.621a.821.821,0,0,0-.416-.1c-.556,0-.7.6-.7,1.275v.237h.868v.61h-.868v3.8Z" fill="#2d4198"/>
        <path id="パス_65" data-name="パス 65" d="M148.6,471.224c0,1.632-.92,2.341-1.789,2.341-.971,0-1.721-.874-1.721-2.269,0-1.476.786-2.342,1.781-2.342C147.9,468.954,148.6,469.875,148.6,471.224Zm-2.85.046c0,.965.453,1.694,1.091,1.694s1.091-.72,1.091-1.713c0-.748-.3-1.7-1.076-1.7S145.752,470.432,145.752,471.27Z" fill="#2d4198"/>
        <path id="パス_66" data-name="パス 66" d="M149.428,470.432c0-.521-.007-.966-.029-1.377h.571l.022.866h.029c.164-.593.558-.967,1-.967a.584.584,0,0,1,.185.028v.755a.865.865,0,0,0-.223-.026c-.46,0-.786.429-.875,1.029a2.766,2.766,0,0,0-.03.374v2.351h-.646Z" fill="#2d4198"/>
        <path id="パス_67" data-name="パス 67" d="M151.886,470.248c0-.456-.008-.828-.03-1.193h.572l.029.711h.022a1.235,1.235,0,0,1,1.128-.812,1.1,1.1,0,0,1,1.018.885h.014a1.734,1.734,0,0,1,.4-.574,1.082,1.082,0,0,1,.794-.311c.475,0,1.18.384,1.18,1.914v2.6h-.638v-2.5c0-.848-.253-1.358-.779-1.358a.893.893,0,0,0-.772.73,1.576,1.576,0,0,0-.052.4v2.725h-.638v-2.643c0-.7-.252-1.211-.75-1.211-.408,0-.705.4-.809.8a1.346,1.346,0,0,0-.052.392v2.661h-.638Z" fill="#2d4198"/>
        <path id="パス_68" data-name="パス 68" d="M160.6,472.407a7.528,7.528,0,0,0,.06,1.058h-.6l-.051-.556h-.022a1.276,1.276,0,0,1-1.1.656,1.148,1.148,0,0,1-1.1-1.265c0-1.067.772-1.651,2.159-1.642v-.091c0-.364-.082-1.019-.815-1.019a1.556,1.556,0,0,0-.936.327l-.148-.529a1.926,1.926,0,0,1,1.18-.392c1.1,0,1.365.921,1.365,1.8Zm-.631-1.191c-.712-.021-1.521.135-1.521.991,0,.52.282.767.615.767a.93.93,0,0,0,.869-.739,1.02,1.02,0,0,0,.037-.254Z" fill="#2d4198"/>
        <path id="パス_69" data-name="パス 69" d="M162.414,468v1.056h.936v.61h-.936v2.379c0,.547.127.855.491.855a1.022,1.022,0,0,0,.378-.054l.029.6a1.311,1.311,0,0,1-.578.118.836.836,0,0,1-.7-.346,1.911,1.911,0,0,1-.253-1.148v-2.406h-.557v-.61h.557v-.811Z" fill="#2d4198"/>
        <path id="パス_70" data-name="パス 70" d="M164.812,467.817a.434.434,0,0,1-.415.492.442.442,0,0,1-.393-.492.45.45,0,0,1,.409-.5C164.657,467.315,164.812,467.533,164.812,467.817Zm-.727,5.648v-4.41h.654v4.41Z" fill="#2d4198"/>
        <path id="パス_71" data-name="パス 71" d="M169.073,471.224c0,1.632-.92,2.341-1.788,2.341-.972,0-1.722-.874-1.722-2.269,0-1.476.787-2.342,1.781-2.342C168.375,468.954,169.073,469.875,169.073,471.224Zm-2.85.046c0,.965.453,1.694,1.091,1.694s1.092-.72,1.092-1.713c0-.748-.3-1.7-1.075-1.7S166.223,470.432,166.223,471.27Z" fill="#2d4198"/>
        <path id="パス_72" data-name="パス 72" d="M169.9,470.248c0-.456-.006-.828-.029-1.193h.579l.036.729h.015a1.308,1.308,0,0,1,1.188-.83c.5,0,1.269.365,1.269,1.878v2.633H172.3v-2.541c0-.712-.214-1.3-.83-1.3a.982.982,0,0,0-.877.82,1.391,1.391,0,0,0-.044.374v2.651H169.9Z" fill="#2d4198"/>
        <path id="パス_73" data-name="パス 73" d="M175.6,470.248c0-.456-.008-.828-.03-1.193h.579l.037.729h.014a1.309,1.309,0,0,1,1.188-.83c.5,0,1.27.365,1.27,1.878v2.633H178v-2.541c0-.712-.214-1.3-.831-1.3a.982.982,0,0,0-.876.82,1.39,1.39,0,0,0-.044.374v2.651H175.6Z" fill="#2d4198"/>
        <path id="パス_74" data-name="パス 74" d="M180.08,471.406c.014,1.084.577,1.531,1.232,1.531a1.991,1.991,0,0,0,.993-.227l.111.572a2.408,2.408,0,0,1-1.193.283c-1.106,0-1.768-.9-1.768-2.232s.639-2.379,1.686-2.379c1.172,0,1.484,1.268,1.484,2.077,0,.164-.016.293-.023.375Zm1.914-.574c.007-.511-.171-1.3-.9-1.3-.661,0-.95.747-1,1.3Z" fill="#2d4198"/>
        <path id="パス_75" data-name="パス 75" d="M184.223,468v1.056h.934v.61h-.934v2.379c0,.547.125.855.489.855a1.021,1.021,0,0,0,.379-.054l.03.6a1.325,1.325,0,0,1-.581.118.837.837,0,0,1-.7-.346,1.919,1.919,0,0,1-.251-1.148v-2.406h-.557v-.61h.557v-.811Z" fill="#2d4198"/>
        <path id="パス_76" data-name="パス 76" d="M186.22,469.055l.475,2.241c.1.493.2.948.267,1.4h.023c.082-.445.2-.92.319-1.4l.585-2.241h.551L189,471.26c.133.529.236.994.318,1.439h.023c.059-.445.156-.91.275-1.429l.511-2.215h.646l-1.157,4.41h-.594l-.549-2.105c-.126-.492-.23-.928-.32-1.449h-.014c-.089.529-.2.986-.327,1.458l-.578,2.1h-.6l-1.083-4.41Z" fill="#2d4198"/>
        <path id="パス_77" data-name="パス 77" d="M194.6,471.224c0,1.632-.921,2.341-1.789,2.341-.972,0-1.722-.874-1.722-2.269,0-1.476.787-2.342,1.782-2.342C193.9,468.954,194.6,469.875,194.6,471.224Zm-2.851.046c0,.965.453,1.694,1.092,1.694.622,0,1.091-.72,1.091-1.713,0-.748-.306-1.7-1.077-1.7S191.751,470.432,191.751,471.27Z" fill="#2d4198"/>
        <path id="パス_78" data-name="パス 78" d="M195.427,470.432c0-.521-.007-.966-.029-1.377h.571l.023.866h.028c.165-.593.558-.967,1-.967a.594.594,0,0,1,.185.028v.755a.865.865,0,0,0-.223-.026c-.459,0-.787.429-.875,1.029a2.766,2.766,0,0,0-.03.374v2.351h-.646Z" fill="#2d4198"/>
        <path id="パス_79" data-name="パス 79" d="M198.53,471.078h.015c.09-.154.216-.347.319-.5l1.054-1.522h.787l-1.388,1.813,1.581,2.6H200.1l-1.24-2.114-.334.456v1.658h-.646V467h.646Z" fill="#2d4198"/>
      </g>
      <path id="パス_80" data-name="パス 80" d="M120.3,469.973H114.9V445.33H120.3Z" fill="#e50012"/>
      <path id="パス_81" data-name="パス 81" d="M125.9,502.551h-5.046V491.466c0-1.339-.072-3.605-3.278-3.605-2.235,0-3.965,1.443-3.965,4.223v10.467h-5.045V484.292H113.4v2.677h.072a6.207,6.207,0,0,1,5.766-3.156c3.748,0,6.667,2.092,6.667,6.108Z" fill="#2d4198"/>
      <path id="パス_82" data-name="パス 82" d="M147.656,491.915c.288-2.4,1.55-3.844,3.928-3.844,1.622,0,3.6.892,3.892,3.844Zm7.6,5.6a3.249,3.249,0,0,1-3.244,1.99c-4.072,0-4.36-3.09-4.5-4.462h13.153v-.857c0-8.341-5.225-10.058-9.009-10.058-8.4,0-9.19,7.037-9.19,9.233,0,7.518,4.145,9.988,9.55,9.988,3.279,0,7.1-1.442,8.433-5.834Z" fill="#2d4198"/>
      <path id="パス_83" data-name="パス 83" d="M187.485,485.072h3.136v3.433h-3.136v9.919c0,1.063.036,1.475,2.091,1.475.323,0,.684-.033,1.045-.068v3.638c-.793.035-1.586.068-2.378.068h-.65c-4.36,0-5.152-1.578-5.152-3.947V488.505h-2.6v-3.433h2.6V480.13h5.044Z" fill="#2d4198"/>
    </g>
  </g>
</svg>
