<?xml version="1.0" encoding="UTF-8" standalone="no"?>
<!DOCTYPE svg PUBLIC "-//W3C//DTD SVG 1.1//EN" "http://www.w3.org/Graphics/SVG/1.1/DTD/svg11.dtd">
<svg width="100%" height="100%" viewBox="0 0 460 60" version="1.1" xmlns="http://www.w3.org/2000/svg" xmlns:xlink="http://www.w3.org/1999/xlink" xml:space="preserve" xmlns:serif="http://www.serif.com/" style="fill-rule:evenodd;clip-rule:evenodd;stroke-linejoin:round;stroke-miterlimit:2;">
    <g transform="matrix(1,0,0,1,-191.312,-145.156)">
        <rect id="ページ1" x="0" y="0" width="841.89" height="595.275" style="fill:none;"/>
        <g id="ページ11" serif:id="ページ1">
            <g id="design">
                <g transform="matrix(1,0,0,1,650.578,204.684)">
                    <path d="M0,-59.528L-47.622,-59.528L-47.622,-47.622L-29.764,-47.622L-29.764,0L-17.858,0L-17.858,-47.622L0,-47.622L0,-59.528Z" style="fill-rule:nonzero;"/>
                </g>
                <g transform="matrix(1,0,0,1,541.93,204.684)">
                    <path d="M0,-59.528L0,0L11.906,0L11.906,-22.323L34.526,-22.323L34.526,-34.229L11.906,-34.229L11.906,-47.622L44.646,-47.622L44.646,-59.528L0,-59.528Z" style="fill-rule:nonzero;"/>
                </g>
                <g transform="matrix(1,0,0,1,487.973,173.432)">
                    <path d="M0,2.976L5.804,-11.534L11.608,2.976L0,2.976ZM-0.893,-28.276L-24.704,31.252L-11.31,31.252L-4.762,14.882L16.37,14.882L22.918,31.252L36.312,31.252L12.501,-28.276L-0.893,-28.276Z" style="fill-rule:nonzero;"/>
                </g>
                <g transform="matrix(1,0,0,1,432.231,185.2)">
                    <path d="M0,-20.56C-0.433,-17.184 -3.47,-14.745 -6.873,-14.745L-17.223,-14.745L-17.223,-28.138L-6.64,-28.138C-2.658,-28.138 0.524,-24.644 0,-20.56M11.962,-21.441C11.962,-31.715 3.634,-40.044 -6.64,-40.044L-29.128,-40.044L-29.128,19.484L-17.223,19.484L-17.223,-2.835L5.096,19.484L19.978,19.484L-2.757,-3.251C5.651,-5.038 11.962,-12.5 11.962,-21.441" style="fill-rule:nonzero;"/>
                </g>
                <g transform="matrix(1,0,0,1,351.956,204.684)">
                    <path d="M0,-59.528L-27.656,-59.528L-20.214,-52.087L-20.214,-14.032L-8.309,-14.032L-8.309,-47.623L3.125,-47.623C7.035,-47.623 12.144,-45.052 14.389,-41.852C24.491,-27.453 14.337,-11.906 0.619,-11.906L-2.356,-11.906L-14.262,0L0.619,0C17.335,0 30.833,-13.781 30.371,-30.601C29.927,-46.813 16.218,-59.528 0,-59.528" style="fill-rule:nonzero;"/>
                </g>
                <g transform="matrix(1,0,0,1,228.727,186.827)">
                    <path d="M0,-5.483C1.289,-2.902 2.257,-0.645 3.386,2.418C1.397,2.796 -0.86,3.171 -5.108,3.709C-3.549,-0.86 -2.151,-5.86 -0.753,-11.988L10.966,-11.988L10.966,-17.471L-13.44,-17.471L-13.44,-11.988L-6.881,-11.988C-8.225,-5.376 -9.408,-0.807 -11.235,4.354C-12.848,4.461 -14.085,4.569 -15.214,4.676L-13.44,10.859C-6.021,9.837 0.054,8.654 4.999,7.311C5.483,8.923 5.859,10.267 6.288,11.988L12.094,8.923C10.052,2.687 7.686,-2.796 5.107,-7.311L0,-5.483Z" style="fill-rule:nonzero;"/>
                </g>
                <g transform="matrix(-1,0,0,1,462.733,-289.152)">
                    <rect x="225.673" y="443.724" width="19.891" height="5.483"/>
                </g>
                <g transform="matrix(1,0,0,1,-8.50389,-254.531)">
                    <path d="M214.008,429.048L217.663,429.048L217.663,432.971L214.008,432.971L214.008,429.048ZM209.493,425.391L205.944,425.391L205.944,421.736L209.493,421.736L209.493,425.391ZM209.493,432.971L205.944,432.971L205.944,429.048L209.493,429.048L209.493,432.971ZM214.008,421.736L217.663,421.736L217.663,425.391L214.008,425.391L214.008,421.736ZM223.63,440.175L214.331,440.175L214.331,436.949L222.071,436.949L222.071,417.759L214.331,417.759L214.331,414.855L223.146,414.855L223.146,410.017L214.331,410.017L214.331,404.964L209.17,404.964L209.17,410.017L200.515,410.017L200.515,414.855L209.17,414.855L209.17,417.759L201.536,417.759L201.536,436.949L209.17,436.949L209.17,440.175L199.816,440.175L199.816,445.12L209.17,445.12L209.17,453.346L214.331,453.346L214.331,445.12L223.63,445.12L223.63,440.175Z" style="fill-rule:nonzero;"/>
                </g>
                <g transform="matrix(0.671923,-0.740621,-0.740621,-0.671923,302.912,157.668)">
                    <path d="M-3.941,-1.851C-2.241,0.998 -0.676,4.233 0.336,7.039L-3.941,9.111C-5.068,6.273 -6.659,3.307 -8.672,0.246L-3.941,-1.851Z" style="fill-rule:nonzero;"/>
                </g>
                <g transform="matrix(1,0,0,1,-8.50389,-253.939)">
                    <path d="M289.656,434.423L283.85,434.423L283.85,431.035L289.656,431.035L289.656,434.423ZM289.656,441.68L283.85,441.68L283.85,438.079L289.656,438.079L289.656,441.68ZM287.721,419.909L285.571,419.909C285.302,417.973 284.927,416.306 284.334,414.263L289.173,414.263C288.904,415.822 288.474,417.543 287.721,419.909M276.701,419.909L276.701,411.307L278.367,411.307L278.367,414.263L280.249,414.263C280.84,416.252 281.271,417.973 281.593,419.909L276.701,419.909ZM271.971,417.167L268.207,417.167L268.207,411.307L271.971,411.307L271.971,417.167ZM271.971,427.38L268.207,427.38L268.207,421.682L271.971,421.682L271.971,427.38ZM271.971,437.701C269.928,438.293 269.121,438.508 268.207,438.615L268.207,431.897L271.971,431.897L271.971,437.701ZM305.676,444.905C305.515,444.905 305.246,444.582 304.816,443.614C304.117,442.218 303.579,440.82 303.257,439.744C305.353,436.251 307.128,432.702 308.794,428.778L304.762,426.412C303.687,429.208 302.828,431.144 301.806,433.078C301.536,430.929 301.321,427.219 301.215,424.1L310.299,424.1L310.299,419.37L301.106,419.37L301.106,404.372L296.053,404.372L296.053,416.79C296.053,417.812 296.053,418.778 296.107,419.909L291.699,419.909C292.344,418.133 292.721,416.736 293.42,414.263L295.248,414.263L295.248,409.748L289.333,409.748L289.333,404.319L284.174,404.319L284.174,409.748L279.281,409.748L279.281,406.254L261.326,406.254L261.326,411.307L263.586,411.307L263.586,439.583C262.617,439.798 261.543,439.959 260.412,440.121L261.864,445.819C264.66,445.227 268.476,444.152 271.971,443.023L271.971,452.754L276.701,452.754L276.701,424.639L296.268,424.639C296.644,431.465 297.128,435.604 297.989,439.368C296.752,441.035 295.463,442.648 294.172,443.937L294.172,427.165L279.336,427.165L279.336,448.022L283.85,448.022L283.85,445.658L292.452,445.658C290.57,447.486 289.333,448.506 287.775,449.581L290.946,453.399C294.441,450.764 297.397,447.916 299.709,444.851C300.516,446.839 301.482,448.4 302.719,449.635C304.278,451.302 305.406,452.001 306.374,452.001C308.526,452.001 310.03,448.615 311.104,441.25L307.073,438.078C306.536,442.754 306.106,444.905 305.676,444.905" style="fill-rule:nonzero;"/>
                </g>
            </g>
        </g>
    </g>
</svg>
