<?xml version="1.0" encoding="UTF-8" standalone="no"?>
<!DOCTYPE svg PUBLIC "-//W3C//DTD SVG 1.1//EN" "http://www.w3.org/Graphics/SVG/1.1/DTD/svg11.dtd">
<svg width="100%" height="100%" viewBox="0 0 1352 225" version="1.1" xmlns="http://www.w3.org/2000/svg" xmlns:xlink="http://www.w3.org/1999/xlink" xml:space="preserve" xmlns:serif="http://www.serif.com/" style="fill-rule:evenodd;clip-rule:evenodd;stroke-linejoin:round;stroke-miterlimit:2;">
    <g transform="matrix(1,0,0,1,-1127.68,-611.51)">
        <g id="レイヤー-1" serif:id="レイヤー 1" transform="matrix(4.16667,0,0,4.16667,0,0)">
            <g transform="matrix(1,0,0,1,378.817,173.67)">
                <path d="M0,0.066C0,16.696 -10.753,26.974 -27.305,26.974C-43.848,26.974 -54.601,16.696 -54.601,0.066C-54.601,-16.565 -43.848,-26.908 -27.305,-26.908C-10.753,-26.908 0,-16.565 0,0.066M-38.284,0.066C-38.284,13.487 -34.826,19.843 -27.305,19.843C-19.786,19.843 -16.317,13.487 -16.317,0.066C-16.317,-13.344 -19.786,-19.784 -27.305,-19.784C-34.826,-19.784 -38.284,-13.344 -38.284,0.066" style="fill:rgb(0,113,188);fill-rule:nonzero;"/>
            </g>
            <g transform="matrix(1,0,0,1,270.642,179.526)">
                <path d="M0,-11.65L0,-30.746L49.907,-30.746L49.907,-11.65L42.919,-11.65C42.919,-19.318 40.667,-24.132 32.022,-24.132L32.022,9.474C32.022,11.347 33.075,12.474 34.947,12.474L39.455,12.474L39.455,19.096L10.291,19.096L10.291,12.474L14.958,12.474C16.83,12.474 17.893,11.347 17.893,9.474L17.893,-24.132C9.24,-24.132 6.985,-19.318 6.985,-11.65L0,-11.65Z" style="fill:rgb(0,113,188);fill-rule:nonzero;"/>
            </g>
            <g transform="matrix(1,0,0,1,402.675,176.933)">
                <path d="M0,-6.405L6.471,-6.405C11.743,-6.405 15.277,-9.259 15.277,-13.931C15.277,-18.594 11.892,-21.531 7.674,-21.531L0,-21.531L0,-6.405ZM-14.146,-18.519C-14.146,-20.403 -15.201,-21.531 -17.076,-21.531L-21.747,-21.531L-21.747,-28.153L9.792,-28.153C22.131,-28.153 29.432,-24.31 29.432,-13.996C29.432,-3.691 22.131,0.224 8.281,0.224L0,0.224L0,12.114C0,13.991 1.063,15.117 2.937,15.117L7.982,15.117L7.982,21.748L-21.673,21.748L-21.673,15.117L-17.076,15.117C-15.201,15.117 -14.146,13.991 -14.146,12.114L-14.146,-18.519Z" style="fill:rgb(0,113,188);fill-rule:nonzero;"/>
            </g>
            <g transform="matrix(1,0,0,1,497.625,171.247)">
                <path d="M0,4.891L10.182,4.891L5.484,-11.273L5.338,-11.273L0,4.891ZM15.855,-22.481L27.707,15.11C29.207,19.696 30.258,20.749 32.889,20.749L34.73,20.749L34.73,27.372L8,27.372L8,20.749L10.256,20.749C12.512,20.749 14.393,20.45 14.393,19.621C14.393,18.876 14.318,18.048 14.023,16.919L12.436,11.506L-2.182,11.506L-3.084,14.516C-3.914,17.143 -4.211,18.27 -4.211,19.323C-4.211,20.526 -1.584,20.749 0.447,20.749L2.625,20.749L2.625,27.372L-19.473,27.372L-19.473,20.749L-16.922,20.749C-14.281,20.749 -13.229,19.696 -11.73,15.11L0.83,-22.481L15.855,-22.481Z" style="fill:rgb(0,113,188);fill-rule:nonzero;"/>
            </g>
            <g transform="matrix(1,0,0,1,579.324,164.269)">
                <path d="M0,18.878L0.148,18.878L0.148,-5.873C0.148,-7.755 -0.904,-8.883 -2.789,-8.883L-7.373,-8.883L-7.373,-15.503L15.791,-15.503L15.791,-8.883L11.277,-8.883C9.398,-8.883 8.352,-7.755 8.352,-5.873L8.352,34.381L-6.844,34.381L-27.754,-2.712L-27.9,-2.712L-27.9,24.75C-27.9,26.624 -26.848,27.752 -24.965,27.752L-20.379,27.752L-20.379,34.381L-43.631,34.381L-43.631,27.752L-39.035,27.752C-37.162,27.752 -36.107,26.624 -36.107,24.75L-36.107,-5.873C-36.107,-7.755 -37.162,-8.883 -39.035,-8.883L-43.705,-8.883L-43.705,-15.503L-19.475,-15.503L0,18.878Z" style="fill:rgb(0,113,188);fill-rule:nonzero;"/>
            </g>
            <g transform="matrix(1,0,0,1,456.23,176.952)">
                <path d="M0,-6.408L6.473,-6.408C11.742,-6.408 15.277,-9.262 15.277,-13.934C15.277,-18.596 11.891,-21.534 7.676,-21.534L0,-21.534L0,-6.408ZM-14.146,-18.522C-14.146,-20.406 -15.201,-21.534 -17.076,-21.534L-21.748,-21.534L-21.748,-28.155L9.791,-28.155C22.131,-28.155 29.434,-24.312 29.434,-13.999C29.434,-3.694 22.131,0.222 8.281,0.222L0,0.222L0,12.112C0,13.985 1.063,15.116 2.936,15.116L7.982,15.116L7.982,21.747L-21.672,21.747L-21.672,15.116L-17.076,15.116C-15.201,15.116 -14.146,13.985 -14.146,12.112L-14.146,-18.522Z" style="fill:rgb(0,113,188);fill-rule:nonzero;"/>
            </g>
        </g>
    </g>
</svg>
