<svg xmlns="http://www.w3.org/2000/svg" viewBox="0 0 368.14 222.12"><defs><style>.cls-1{fill:#31aee1;}.cls-2{fill:#eb6682;}.cls-3{fill:#ffffff;}</style></defs><title>logo_v_01</title><g id="レイヤー_1" data-name="レイヤー 1"><path class="cls-1" d="M208.3,50.83c.58-1.36,1.19-2.69,1.84-4l0-.09c.64-1.29,1.3-2.56,2-3.81.79-1.43,1.63-2.83,2.5-4.21l.78-1.22c.35-.53.7-1.06,1.06-1.58l1.06-1.5c.31-.42.6-.84.91-1.25.65-.87,1.32-1.72,2-2.56.26-.32.53-.63.8-.95.53-.63,1.07-1.25,1.62-1.87l.75-.84c.8-.87,1.61-1.73,2.44-2.56.41-.41.84-.79,1.25-1.19h0q1.62-1.54,3.3-3l.1-.09q1.69-1.45,3.47-2.82-1.82-1.41-3.72-2.75a79.44,79.44,0,0,0-25.3-11.6,81.3,81.3,0,0,0-33-2.13A82.11,82.11,0,0,0,133.42,16.9,85.24,85.24,0,0,0,118,32.09,79.72,79.72,0,0,0,107.2,50.46a87.57,87.57,0,0,0-3.87,11.28,77.36,77.36,0,0,0-2,10.14c-.44,3.32-.73,6.57-.89,9.75l23.08,6.18,41.42,11.1,47.64,12.76a41.28,41.28,0,0,1-18,10.68,39,39,0,0,1-21.39.12,38.53,38.53,0,0,1-11.81-5.4c-.55-.38-1.07-.78-1.6-1.17-.59,1.38-1.22,2.74-1.88,4.07l-.06.11q-1,2-2,3.87c-.85,1.53-1.75,3-2.69,4.47l-.37.59c-.41.62-.82,1.23-1.24,1.84l-.78,1.1c-.38.52-.75,1-1.13,1.55-.62.83-1.26,1.64-1.91,2.43-.27.34-.55.67-.83,1-.52.61-1,1.22-1.58,1.82l-.77.85c-.79.87-1.59,1.72-2.42,2.55-.52.52-1.06,1-1.59,1.52l-.18.16c-1,.95-2,1.87-3.07,2.76l-.21.18q-1.69,1.44-3.47,2.79h0c1.22.93,2.47,1.85,3.74,2.73a80.1,80.1,0,0,0,24.87,11.31,81.65,81.65,0,0,0,33,2.13,82.55,82.55,0,0,0,39.17-16.4,85,85,0,0,0,15-14.89,79.46,79.46,0,0,0,11-18.83A87.11,87.11,0,0,0,264,104.79a78.32,78.32,0,0,0,2.83-19.56l.08-.32-22.29-6L203.18,67.83l-48.41-13a41.2,41.2,0,0,1,18-10.67,39,39,0,0,1,21.39-.12,39.44,39.44,0,0,1,12.41,5.73c.56.39,1.11.8,1.65,1.21h0A1.34,1.34,0,0,1,208.3,50.83Z"/><path class="cls-2" d="M361.65,50.83A83.05,83.05,0,0,0,317.41,6.59,81.53,81.53,0,0,0,285,.1a83.65,83.65,0,0,0-21.22,2.66h0c-.91.24-1.82.49-2.72.76l-.21.06c-.91.28-1.82.57-2.73.88l-.05,0c-.81.28-1.63.57-2.43.88l-.58.22c-.83.33-1.66.66-2.48,1-1.12.48-2.23,1-3.32,1.51l-1,.51c-.76.38-1.52.77-2.26,1.16l-1.09.59c-1,.55-2,1.11-3,1.7l-.54.34c-.76.46-1.5.94-2.23,1.43-.54.35-1.07.71-1.59,1.07s-1,.71-1.51,1.07-1.19.88-1.77,1.32q-1.77,1.37-3.47,2.82l-.1.09q-1.68,1.46-3.3,3h0c-.41.4-.84.78-1.25,1.19-.83.83-1.64,1.69-2.44,2.56l-.75.84c-.55.62-1.09,1.24-1.62,1.87-.27.32-.54.63-.8.95-.68.84-1.35,1.69-2,2.56-.31.41-.6.83-.91,1.25l-1.06,1.5c-.36.52-.71,1-1.06,1.58l-.78,1.22c-.87,1.38-1.71,2.78-2.5,4.21-.69,1.25-1.35,2.52-2,3.81l0,.09c-.65,1.31-1.26,2.64-1.84,4a1.34,1.34,0,0,0-.07.18c-.28.66-.56,1.32-.82,2l0,0c-.25.65-.5,1.31-.74,2h0c-.49,1.34-.94,2.7-1.36,4.07h0L246.36,70.7c.19-.6.4-1.19.62-1.78s.37-1,.57-1.45a40.38,40.38,0,0,1,8.65-13c.44-.43.88-.86,1.34-1.27l.6-.52c.26-.23.51-.46.78-.68l.82-.65.6-.46c.32-.25.65-.48,1-.72l.46-.33,1.15-.75.35-.22c.42-.26.85-.52,1.29-.77l.23-.13,1.43-.77.13-.06c.52-.26,1-.52,1.58-.76h0l1.22-.56a40.59,40.59,0,1,1,0,74.85c-.39-.16-.77-.34-1.16-.52a88.32,88.32,0,0,1-11.72,19.75A94.39,94.39,0,0,1,242,154.54,86.77,86.77,0,0,0,252.54,160a84.42,84.42,0,0,0,64.87,0,83,83,0,0,0,44.24-44.25,81.35,81.35,0,0,0,6.49-32.43A81.4,81.4,0,0,0,361.65,50.83Z"/><path class="cls-2" d="M137,146.77l.21-.18c1-.89,2.07-1.81,3.07-2.76l.18-.16c.53-.5,1.07-1,1.59-1.52.83-.83,1.63-1.68,2.42-2.55l.77-.85c.54-.6,1.06-1.21,1.58-1.82.28-.33.56-.66.83-1,.65-.79,1.29-1.6,1.91-2.43.38-.51.75-1,1.13-1.55l.78-1.1c.42-.61.83-1.22,1.24-1.84l.37-.59c.94-1.46,1.84-2.94,2.69-4.47q1.06-1.9,2-3.87l.06-.11c.66-1.33,1.29-2.69,1.88-4.07a1.76,1.76,0,0,0,.09-.2q.45-1,.87-2.1c0-.14.11-.29.17-.44.22-.58.44-1.16.65-1.75l.13-.36c.23-.64.45-1.28.66-1.93a1.54,1.54,0,0,0,.05-.17c.24-.73.46-1.45.68-2.18h0L142.2,102l-20.63-5.53-.24.74c-.23.63-.48,1.25-.74,1.87a40.33,40.33,0,0,1-8.65,13c-.68.68-1.39,1.33-2.11,1.95l-.36.31c-.74.62-1.5,1.22-2.29,1.78l-.13.1a40.88,40.88,0,0,1-5.38,3.25c-.88.44-1.78.87-2.7,1.26a40.59,40.59,0,1,1,0-74.85l.48.22A88.33,88.33,0,0,1,111,26.62a94.36,94.36,0,0,1,14.65-14.9A87.58,87.58,0,0,0,115.6,6.59,81.53,81.53,0,0,0,83.17.1,81.54,81.54,0,0,0,50.73,6.59,83.05,83.05,0,0,0,6.49,50.83,81.4,81.4,0,0,0,0,83.27,81.35,81.35,0,0,0,6.49,115.7,83,83,0,0,0,50.73,160a81.53,81.53,0,0,0,32.44,6.48A81.52,81.52,0,0,0,115.6,160c1.39-.6,2.75-1.24,4.09-1.9h0l.31-.16,1.34-.69,1.16-.6,2.31-1.29c.33-.19.67-.37,1-.57l.17-.1,1.15-.7,1.71-1.09c.74-.49,1.48-1,2.21-1.5l.89-.64,1.59-1.16Q135.3,148.21,137,146.77Z"/><path class="cls-3" d="M27.7,199.74v21.75H20V199.74H18.8c-2.31,11.84-10,19-18.8,21.26v-7.33a19.81,19.81,0,0,0,11.1-13.93H.37v-7H20v-5.17H27.7v5.17h5.44v7Z"/><path class="cls-3" d="M37.31,206.45v-7.26H69.78v7.26Z"/><path class="cls-3" d="M106.09,193.75C104.67,212.44,93,220.19,78.72,221v-7c10.84-1.42,17.69-7.63,19-18.1H74.78v-7.15h26.8a4,4,0,0,1,7.79,1A4.07,4.07,0,0,1,106.09,193.75Zm-.63-5.4A1.51,1.51,0,0,0,104,189.8a1.45,1.45,0,1,0,2.9,0A1.53,1.53,0,0,0,105.46,188.35Z"/><path class="cls-3" d="M112.83,196.1v-7.38a137.35,137.35,0,0,1,16.91,1.83v7.56C125.68,197.36,117.45,196.36,112.83,196.1Zm.64,24.76v-7.45c14.07-.93,22.08-4.62,22.9-19.21h8.15C143.63,213.15,133.05,220.59,113.47,220.86Z"/><path class="cls-3" d="M166.83,211.1v-6.89a10,10,0,0,0,5.88-4.69H160.28v11.32c0,2,.89,2.87,3.2,2.87h17.83v7.07H162.4c-7.34,0-9.76-2.61-9.76-8.49V199.52H148.1v-7h4.54v-4.91h7.64v4.91H182C181.87,203.28,175.54,209.91,166.83,211.1Z"/><path class="cls-3" d="M187.13,218.88V211.4a270.28,270.28,0,0,1,31.35,2.16v7.67A279.25,279.25,0,0,0,187.13,218.88Zm1.15-23v-7.34c9.46.08,20.44.41,28.93,1.08v7.49C207.83,196.36,197.51,195.91,188.28,195.91Zm1.15,11v-7a256.33,256.33,0,0,1,26.22,1.23v7.33A262.13,262.13,0,0,0,189.43,206.93Z"/><path class="cls-3" d="M246.26,201.75c-.89,11.66-7.67,18.44-21.11,19.66v-7c8.6-1.3,12.51-5.43,13.1-12.66H222.8v-7.14h15.56v-7h8v7H257v7.14Z"/><path class="cls-3" d="M260.75,206.45v-7.26h32.46v7.26Z"/><path class="cls-3" d="M327,222.16h-6.77l-.75-4.73H305.25V205.26h5.43v6.18h1.05v-7.38h-6.48v-5.84h2.05c-.23-1.23-.67-3-.79-3.35l6.33-.71c.38,1.6.67,3.42.78,4.06h1.23a39.72,39.72,0,0,0,.93-4.21H304.35v28.15H297.8V187.53h32.91v31.13C330.71,222.16,327.74,222.16,327,222.16ZM324.2,194h-8.38l6.59,1.08a21.55,21.55,0,0,1-1.15,3.13h2.12v5.84h-6.67v7.38h1.05v-6.18h5.55v9.86c.44,0,.67,0,.78-.18a1.63,1.63,0,0,0,.11-.86Z"/><path class="cls-3" d="M342.19,192.41v21h5.66V186.6h7.33v26.77h5.7v-21h7.26v29.71h-7.26v-1.79H342.19v1.79h-7.34V192.41Z"/></g></svg>