<svg id="レイヤー_0" data-name="レイヤー 0" xmlns="http://www.w3.org/2000/svg" viewBox="0 0 1053.49 476.28"><defs><style>.cls-1{fill:#fff;}</style></defs><title>logo_white</title><path class="cls-1" d="M596.08,145.17q2.49-5.83,5.27-11.46l.12-.24q2.73-5.55,5.69-10.9c2.27-4.11,4.67-8.12,7.16-12.07.73-1.16,1.47-2.33,2.22-3.48,1-1.52,2-3,3-4.51s2-2.89,3.06-4.31c.86-1.2,1.7-2.41,2.59-3.59,1.85-2.47,3.77-4.9,5.72-7.3.75-.92,1.52-1.82,2.28-2.73,1.52-1.8,3.06-3.59,4.63-5.35.72-.8,1.43-1.61,2.16-2.4,2.28-2.49,4.6-4.94,7-7.34,1.16-1.16,2.38-2.26,3.56-3.39h0q4.62-4.44,9.45-8.59a3.47,3.47,0,0,1,.29-.25q4.85-4.17,9.92-8.07c-3.48-2.69-7-5.34-10.64-7.88q-32-22.37-72.41-33.2Q539.38-4.7,492.72,2a239.24,239.24,0,0,0-86.28,29.6,236.84,236.84,0,0,0-24.62,16.43,242.54,242.54,0,0,0-44.16,43.5,227,227,0,0,0-30.88,52.57,249.59,249.59,0,0,0-11.08,32.27,223.35,223.35,0,0,0-5.79,29q-1.86,14.3-2.55,27.9L353.41,251l118.53,31.76,136.33,36.53a117.74,117.74,0,0,1-51.54,30.54q-29.94,8.73-61.2.35a109.68,109.68,0,0,1-33.8-15.46c-1.57-1.07-3.05-2.22-4.57-3.34-1.7,4-3.51,7.84-5.4,11.66l-.15.3q-2.81,5.64-5.84,11.08c-2.44,4.36-5,8.62-7.69,12.79L437,368.89c-1.16,1.77-2.35,3.52-3.55,5.26-.73,1.05-1.48,2.1-2.23,3.14-1.07,1.49-2.13,3-3.24,4.46q-2.66,3.53-5.45,6.95c-.78,1-1.59,1.9-2.38,2.84q-2.22,2.64-4.51,5.22c-.73.82-1.46,1.63-2.21,2.44-2.26,2.47-4.56,4.91-6.94,7.29-1.49,1.49-3,2.92-4.55,4.36-.16.16-.34.3-.5.45q-4.31,4.06-8.8,7.9l-.59.51c-3.24,2.74-6.56,5.41-9.94,8h0c3.5,2.67,7.05,5.29,10.71,7.81A228.56,228.56,0,0,0,464,467.87q47.82,12.81,94.46,6.1a239.19,239.19,0,0,0,86.28-29.61A235.27,235.27,0,0,0,670.54,427a242.84,242.84,0,0,0,43-42.6,227.46,227.46,0,0,0,31.42-53.89,250.38,250.38,0,0,0,10.54-31,224.08,224.08,0,0,0,8.1-56l.25-.92L700,225.59,581.45,193.83,442.9,156.7a118,118,0,0,1,51.55-30.54q29.93-8.73,61.2-.35a113.31,113.31,0,0,1,35.51,16.41c1.62,1.12,3.18,2.28,4.71,3.45h0C595.94,145.51,596,145.34,596.08,145.17Z"/><path class="cls-1" d="M1034.93,145.17A237.74,237.74,0,0,0,908.32,18.56Q865,0,815.5,0a240,240,0,0,0-60.71,7.6h0q-3.93,1-7.81,2.19l-.59.17c-2.62.79-5.22,1.62-7.8,2.51l-.15,0c-2.33.8-4.66,1.65-7,2.53l-1.66.63c-2.37.93-4.74,1.88-7.08,2.88-3.22,1.38-6.38,2.84-9.5,4.33-1,.48-2,1-3,1.47-2.18,1.07-4.33,2.18-6.47,3.31-1,.56-2.09,1.1-3.12,1.67-2.87,1.58-5.72,3.2-8.52,4.88l-1.55,1c-2.15,1.32-4.28,2.69-6.38,4.08q-2.29,1.51-4.55,3.08t-4.33,3.06q-2.55,1.86-5,3.78-5.07,3.9-9.92,8.07a3.47,3.47,0,0,0-.29.25q-4.83,4.16-9.45,8.59h0c-1.18,1.13-2.4,2.23-3.56,3.39-2.4,2.4-4.72,4.85-7,7.34-.73.79-1.44,1.6-2.16,2.4-1.57,1.76-3.11,3.55-4.63,5.35-.76.91-1.53,1.81-2.28,2.73-2,2.4-3.87,4.83-5.72,7.3-.89,1.18-1.73,2.39-2.59,3.59-1,1.42-2.06,2.86-3.06,4.31s-2,3-3,4.51c-.75,1.15-1.49,2.32-2.22,3.48-2.49,4-4.89,8-7.16,12.07q-3,5.36-5.69,10.9l-.12.24q-2.77,5.63-5.27,11.46c-.08.17-.14.34-.21.5q-1.2,2.84-2.33,5.68a.5.5,0,0,1,0,.13q-1.1,2.82-2.13,5.65h0q-2.1,5.78-3.88,11.67h0L705,202c.55-1.7,1.14-3.4,1.78-5.08.52-1.39,1.05-2.79,1.64-4.17a115.31,115.31,0,0,1,24.75-37.12Q735,153.78,737,152c.56-.51,1.15-1,1.72-1.5.74-.64,1.47-1.29,2.23-1.92s1.56-1.25,2.35-1.87c.57-.44,1.13-.89,1.71-1.33.93-.7,1.88-1.37,2.83-2,.45-.32.89-.64,1.34-.94,1.07-.74,2.17-1.45,3.27-2.15l1-.63c1.22-.75,2.45-1.49,3.7-2.2l.67-.38c1.35-.76,2.71-1.49,4.1-2.2l.36-.18q2.22-1.14,4.51-2.19h0c1.17-.53,2.32-1.07,3.51-1.57a116.14,116.14,0,1,1,0,214.19c-1.12-.48-2.22-1-3.32-1.5a253.11,253.11,0,0,1-33.54,56.51,270.27,270.27,0,0,1-41,41.85,248.64,248.64,0,0,0,30.26,15.47Q766,476,815.5,476t92.82-18.56a237.74,237.74,0,0,0,126.61-126.61q18.57-43.32,18.56-92.82T1034.93,145.17Z"/><path class="cls-1" d="M392.05,419.71l.59-.51q4.49-3.82,8.8-7.9c.16-.15.34-.29.5-.45,1.52-1.44,3.06-2.87,4.55-4.36,2.38-2.38,4.68-4.82,6.94-7.29.75-.81,1.48-1.62,2.21-2.44q2.3-2.58,4.51-5.22c.79-.94,1.6-1.88,2.38-2.84q2.79-3.42,5.45-6.95c1.11-1.47,2.17-3,3.24-4.46.75-1,1.5-2.09,2.23-3.14,1.2-1.74,2.39-3.49,3.55-5.26l1.08-1.69c2.67-4.17,5.25-8.43,7.69-12.79q3-5.45,5.84-11.08l.15-.3c1.89-3.82,3.7-7.7,5.4-11.66.09-.19.18-.37.26-.56.85-2,1.67-4,2.47-6l.48-1.27q1-2.49,1.88-5l.36-1q1-2.76,1.89-5.54c.05-.17.11-.33.16-.5.67-2.07,1.31-4.14,1.93-6.23h0l-59.66-13.68-59-15.81c-.25.7-.46,1.41-.72,2.11q-1,2.7-2.1,5.36a115.47,115.47,0,0,1-24.75,37.13c-1.95,1.94-4,3.78-6,5.57l-1,.89c-2.11,1.77-4.29,3.48-6.53,5.1l-.4.28a118.68,118.68,0,0,1-15.39,9.3c-2.52,1.27-5.08,2.49-7.73,3.61a116.15,116.15,0,1,1,0-214.19c.47.19.92.41,1.38.62a253.23,253.23,0,0,1,33.16-55.64,270.45,270.45,0,0,1,41.94-42.64,249.84,249.84,0,0,0-28.88-14.68Q287.49,0,238,0T145.17,18.56A237.74,237.74,0,0,0,18.56,145.17Q0,188.49,0,238t18.56,92.82A237.74,237.74,0,0,0,145.17,457.42Q188.49,476,238,476t92.82-18.56c4-1.71,7.87-3.53,11.71-5.42h0l.88-.46c1.29-.64,2.56-1.3,3.84-2,1.1-.57,2.21-1.13,3.3-1.72q3.35-1.8,6.61-3.68c.95-.55,1.92-1.06,2.86-1.62l.48-.3c1.1-.65,2.18-1.33,3.27-2q2.47-1.54,4.9-3.13,3.19-2.1,6.32-4.29c.86-.6,1.71-1.21,2.56-1.82,1.52-1.1,3-2.2,4.54-3.34C385.49,425.12,388.81,422.45,392.05,419.71Z"/></svg>