<svg id="レイヤー_1" data-name="レイヤー 1" xmlns="http://www.w3.org/2000/svg" xmlns:xlink="http://www.w3.org/1999/xlink" viewBox="0 0 376.88 102.05"><defs><style>.cls-1{fill:#ffc236;}.cls-2{fill:#ab56c9;}.cls-3{fill:#ff5b63;}.cls-4{fill:#5078ce;}.cls-5{fill:#34b0c0;}.cls-6{fill:#cdd419;}.cls-7{fill:#040000;}</style><symbol id="CMem_color" data-name="CMem_color" viewBox="0 0 689.89 788.23"><path class="cls-1" d="M423.35,53.27a26.68,26.68,0,0,0-.69-3.44c0-.08-.05-.15-.08-.22A26.77,26.77,0,0,0,418.94,42a26.54,26.54,0,0,0-8.74-8.33h0l-52-30a26.77,26.77,0,0,0-26.77,0l-145.52,84a26.76,26.76,0,0,0-13.38,23.18V203.5L199.25,219V110.78l145.52-84,25.28,14.59L237.91,117.65a26.77,26.77,0,0,0-13.38,23.18v92.72l13.18,7.61a26.76,26.76,0,0,1,13.38,23.18l.2-123.51,145.52-84V165.3l10.92-6.3,15.85-9.15v-93A26.82,26.82,0,0,0,423.35,53.27Z"/><path class="cls-1" d="M345.31,254.58,251.09,309v26.64h.2A26.75,26.75,0,0,0,264.68,332l84-48.5a26.74,26.74,0,0,1-3.36-13Z"/><polygon class="cls-2" points="423.58 149.85 423.58 149.85 407.74 159 423.58 149.85"/><path class="cls-3" d="M251.09,264.34a26.76,26.76,0,0,0-13.38-23.18l-13.18-7.61L92.19,157.14a26.76,26.76,0,0,0-26.76,0l-52,30A26.76,26.76,0,0,0,0,210.37v168a26.76,26.76,0,0,0,3.59,13.38h0a26.76,26.76,0,0,0,9.8,9.8l80.55,46.51.09,0,26.77,15.45-.09,0L158.9,485.6a26.74,26.74,0,0,0,6.51,2.69l.23,0a28.3,28.3,0,0,0,20-2.73h0l38.23-22.07.08,0,13.74-7.93a26.73,26.73,0,0,0,9.57-9.43l0-.07a26.74,26.74,0,0,0,3.77-13.69ZM26.77,378.4v-168l145.52,84v168ZM195.47,281a26.75,26.75,0,0,0-9.8-9.8l-13.18-7.61-119-68.68,25.28-14.59,145.52,84v168l-.36.21L199.05,447V294.38A26.75,26.75,0,0,0,195.47,281Z"/><polygon class="cls-4" points="120.78 463.49 94.02 448.04 93.93 448.09 120.7 463.54 120.78 463.49"/><path class="cls-2" d="M341.08,504.57l-.09-.18a26.75,26.75,0,0,0-9.8-9.8l-83.91-48.47a26.73,26.73,0,0,1-9.57,9.43L224,463.48l-.08,0L318,517.89Z"/><path class="cls-2" d="M172.29,601.79l-145.52-84,93.93-54.23L93.93,448.09,13.38,494.59a26.75,26.75,0,0,0-5.58,4.29l-.15.18a26.77,26.77,0,0,0-4.8,7A26.54,26.54,0,0,0,0,517.77H0v60.09A26.77,26.77,0,0,0,13.38,601l145.52,84a26.76,26.76,0,0,0,26.76,0L266,638.7V607.79l-93.68,54.09-145.52-84V548.68L158.9,625a26.76,26.76,0,0,0,26.77,0L266,578.61V563.39a26.77,26.77,0,0,1,13.38-23.18Z"/><path class="cls-3" d="M279.35,540.21"/><path class="cls-3" d="M341.08,504.57h0"/><path class="cls-5" d="M442.49,342.14l-.11.17a26.75,26.75,0,0,0-3.59,13.38v96.93a26.73,26.73,0,0,1,12.84,3.57l13.86,8,.06,0V355.69h0Z"/><path class="cls-5" d="M689.89,409.66a26.76,26.76,0,0,0-13.38-23.18l-80.3-46.36L577.39,351l-8,4.59,93.68,54.09v168l-25.28,14.59V439.71a26.76,26.76,0,0,0-13.38-23.18l-80.3-46.36L531,377.78a26.77,26.77,0,0,1-26.76,0l106.86,61.93v168h0l-94-54.28v30.91l80.64,46.56a26.75,26.75,0,0,0,6.51,2.69l.23,0a28.3,28.3,0,0,0,20-2.73h0l52-30a26.77,26.77,0,0,0,13.38-23.18Z"/><polygon class="cls-5" points="611.08 607.74 611.08 523.72 611.08 607.74 611.08 607.74"/><polyline class="cls-5" points="465.56 418.83 465.56 355.46 442.49 342.14"/><path class="cls-6" d="M689.89,270.58V210.49a26.76,26.76,0,0,0-13.38-23.18L531,103.29a26.76,26.76,0,0,0-13.38-3.59h0a26.76,26.76,0,0,0-13.38,3.59l-80.64,46.56h0L407.74,159l-49,28.31a26.75,26.75,0,0,0-5.58,4.29l-.15.18a28.3,28.3,0,0,0-7.64,18.71h0v60.09a26.84,26.84,0,0,0,13.38,23.18l83.79,48.38h0l61.73,35.64a26.77,26.77,0,0,0,26.76,0l13.18-7.61h0l25.28-14.59h0l8-4.59,99.11-57.22A26.76,26.76,0,0,0,689.89,270.58Zm-26.76,0-145.52,84-145.52-84V241.39l132.14,76.29a26.77,26.77,0,0,0,26.77,0L663.12,241.4ZM517.6,294.51l-145.52-84,145.52-84,145.52,84Z"/><path class="cls-4" d="M517.06,509.42a26.75,26.75,0,0,0-.93-7c0-.08-.05-.15-.08-.22a28.3,28.3,0,0,0-12.38-16h0l-52-30a26.73,26.73,0,0,0-12.84-3.57h-.06a26.74,26.74,0,0,0-13.86,3.57l-83.79,48.38h0l-61.73,35.64A26.77,26.77,0,0,0,266,563.39v168a26.76,26.76,0,0,0,13.38,23.18l52,30a26.76,26.76,0,0,0,26.77,0l145.52-84a26.76,26.76,0,0,0,9.8-9.8h0a26.76,26.76,0,0,0,3.59-13.38ZM321.6,580.05A26.75,26.75,0,0,0,318,593.43V746l-25.28-14.59v-168l145.52-84,.48.27L463.53,494,331.39,570.25A26.75,26.75,0,0,0,321.6,580.05Zm168.7,97.4-145.52,84v-168l145.52-84Z"/></symbol></defs><title>アートボード 22</title><use width="689.89" height="788.23" transform="translate(17.01 17.01) scale(0.09 0.09)" xlink:href="#CMem_color"/><path class="cls-7" d="M113.68,44v7.48a13.75,13.75,0,0,0-3.45-3.23,6.74,6.74,0,0,0-3.53-.9,7,7,0,0,0-5.28,2.23,7.81,7.81,0,0,0-2.1,5.58,8,8,0,0,0,2,5.63,6.84,6.84,0,0,0,5.23,2.2,7.15,7.15,0,0,0,3.58-.88,14.16,14.16,0,0,0,3.53-3.3v7.43A14.79,14.79,0,0,1,106.83,68a13.12,13.12,0,0,1-9.46-3.65,12.2,12.2,0,0,1-3.81-9.14A12.36,12.36,0,0,1,97.42,46a13,13,0,0,1,9.46-3.75A14.14,14.14,0,0,1,113.68,44"/><rect class="cls-7" x="119.12" y="34.02" width="5.63" height="33.31"/><path class="cls-7" d="M148.25,43h5.65V67.33h-5.65V64.78a10.82,10.82,0,0,1-15.84-.4,13.59,13.59,0,0,1-3.28-9.31,13.16,13.16,0,0,1,3.28-9.14,10.57,10.57,0,0,1,8.21-3.65,10.37,10.37,0,0,1,7.63,3.5ZM134.88,55.07a8.49,8.49,0,0,0,1.88,5.71A6.14,6.14,0,0,0,141.61,63a6.46,6.46,0,0,0,5.06-2.15,8.33,8.33,0,0,0,1.93-5.66,8.33,8.33,0,0,0-1.93-5.66,6.37,6.37,0,0,0-5-2.18,6.22,6.22,0,0,0-4.86,2.2,8.12,8.12,0,0,0-1.93,5.51"/><path class="cls-7" d="M174,46.76l-4.66,2.48Q168.23,47,166.6,47a1.88,1.88,0,0,0-1.33.51,1.72,1.72,0,0,0-.55,1.31q0,1.4,3.25,2.78a19.43,19.43,0,0,1,6,3.55,6.09,6.09,0,0,1,1.55,4.38,7.67,7.67,0,0,1-2.6,5.91,8.86,8.86,0,0,1-6.11,2.25q-6.13,0-8.69-6L163,59.47a10.4,10.4,0,0,0,1.53,2.23,3.48,3.48,0,0,0,2.45,1q2.85,0,2.85-2.6,0-1.5-2.2-2.8l-1.7-.83-1.73-.82a10.62,10.62,0,0,1-3.45-2.4,5.93,5.93,0,0,1-1.28-3.93A7,7,0,0,1,161.62,44,7.64,7.64,0,0,1,167,41.92q4.68,0,7,4.83"/><path class="cls-7" d="M194.13,47.11l-4.66,2.48q-1.1-2.25-2.73-2.25a1.88,1.88,0,0,0-1.33.51,1.72,1.72,0,0,0-.55,1.31q0,1.4,3.25,2.78a19.42,19.42,0,0,1,6,3.55,6.09,6.09,0,0,1,1.55,4.38,7.67,7.67,0,0,1-2.6,5.91A8.86,8.86,0,0,1,187,68q-6.13,0-8.69-6l4.81-2.23A10.48,10.48,0,0,0,184.65,62a3.48,3.48,0,0,0,2.45.95Q190,63,190,60.4q0-1.5-2.2-2.8l-1.7-.82-1.73-.83a10.57,10.57,0,0,1-3.45-2.4,5.92,5.92,0,0,1-1.28-3.93,7,7,0,0,1,2.18-5.26,7.63,7.63,0,0,1,5.41-2.08q4.68,0,7,4.83"/><path class="cls-7" d="M200.21,43h5.63V45.2a11.81,11.81,0,0,1,2.78-2.3,6.77,6.77,0,0,1,3.08-.63,7.47,7.47,0,0,1,6.53,3.6,8.45,8.45,0,0,1,7.18-3.6q8.23,0,8.23,10V67.33H228V53.79a10.44,10.44,0,0,0-.85-5,3.09,3.09,0,0,0-2.88-1.48,3.68,3.68,0,0,0-3.39,1.75q-1.07,1.75-1.06,5.63V67.33h-5.66V53.86q0-6.51-3.75-6.51a3.76,3.76,0,0,0-3.47,1.78,11.07,11.07,0,0,0-1.09,5.61V67.33h-5.63Z"/><path class="cls-7" d="M261.38,56.47H243.91a7.42,7.42,0,0,0,2,4.78A6,6,0,0,0,250.29,63a5.74,5.74,0,0,0,3.48-1,14.19,14.19,0,0,0,3.08-3.7l4.76,2.65a19,19,0,0,1-2.33,3.22,12.4,12.4,0,0,1-2.63,2.2,10.53,10.53,0,0,1-3,1.26,14.77,14.77,0,0,1-3.53.4,11.47,11.47,0,0,1-8.76-3.5,13.14,13.14,0,0,1-3.3-9.36,13.5,13.5,0,0,1,3.2-9.36,12.21,12.21,0,0,1,17.07-.1q3.1,3.41,3.1,9.44Zm-5.78-4.61q-1.18-4.5-5.68-4.51a5.84,5.84,0,0,0-1.93.31,5.47,5.47,0,0,0-1.64.9A5.76,5.76,0,0,0,245.09,50a6.57,6.57,0,0,0-.8,1.88Z"/><polygon class="cls-7" points="271.5 48.21 271.5 67.33 265.88 67.33 265.88 48.21 265.88 42.95 265.88 34.02 271.5 34.02 271.5 42.95 276.81 42.95 276.81 48.21 271.5 48.21"/><path class="cls-7" d="M281.22,34h5.63V45a9.7,9.7,0,0,1,6.63-2.7A8.57,8.57,0,0,1,300.09,45q2.1,2.33,2.1,7.43V67.33h-5.63V52.91a6.86,6.86,0,0,0-1-4.24,4,4,0,0,0-3.34-1.31q-3,0-4.16,1.83t-1.17,6.36V67.33h-5.63Z"/><path class="cls-7" d="M305.82,55a12.12,12.12,0,0,1,3.78-9,13.33,13.33,0,0,1,18.47,0,12.41,12.41,0,0,1,3.75,9.16A12.35,12.35,0,0,1,328,64.35,12.92,12.92,0,0,1,318.71,68a12.39,12.39,0,0,1-9.18-3.75,12.63,12.63,0,0,1-3.7-9.31m5.76.1a8.22,8.22,0,0,0,2,5.78,7.58,7.58,0,0,0,10.56,0,8,8,0,0,0,2-5.68,8,8,0,0,0-2-5.68,7.49,7.49,0,0,0-10.51,0,7.83,7.83,0,0,0-2,5.56"/><path class="cls-7" d="M354.22,34h5.65V67.33h-5.65V64.78A10.51,10.51,0,0,1,346.68,68a10.73,10.73,0,0,1-8.31-3.65,13.59,13.59,0,0,1-3.28-9.31A13.14,13.14,0,0,1,338.37,46a10.53,10.53,0,0,1,15.84-.18Zm-13.37,21a8.48,8.48,0,0,0,1.88,5.71A6.14,6.14,0,0,0,347.58,63a6.46,6.46,0,0,0,5.06-2.15,8.33,8.33,0,0,0,1.93-5.66,8.33,8.33,0,0,0-1.93-5.66,6.37,6.37,0,0,0-5-2.18,6.23,6.23,0,0,0-4.86,2.2,8.12,8.12,0,0,0-1.93,5.51"/></svg>